<svg xmlns="http://www.w3.org/2000/svg" viewBox="0 0 354.33 364.68" focusable="false" width="200"  height="205.8420116840234" ><path fill="#188FCF" d="M322.43,44.94c.57,28,1.33,55.44,4,82.57a690.78,690.78,0,0,0,12.18,80.38,706.42,706.42,0,0,0,21.52,78.42c8.59,25.88,18.92,51.26,29.66,77.18-18.55-21.09-33.47-45.25-45.62-70.73a368.66,368.66,0,0,1-34.89-164.69C310.06,99.85,314,71.72,322.43,44.94Z" transform="translate(-35.43 -30.26)"></path><path fill="#0071B0" d="M35.43,247.84c24-14.49,47.33-28.89,69.51-44.75a693.15,693.15,0,0,0,63.52-50.74,707.55,707.55,0,0,0,57.16-57.83c18.13-20.38,35-42,52-64.26-9,26.62-22.47,51.61-38.47,74.86a366,366,0,0,1-56.08,63.5,365.67,365.67,0,0,1-69.09,49C89.17,231.07,62.87,241.81,35.43,247.84Z" transform="translate(-35.43 -30.26)"></path><path fill="#3EA3DC" d="M354.66,394.94C330.1,381.39,306,368.4,281.15,357.12a694.24,694.24,0,0,0-75.71-29.64,705,705,0,0,0-78.66-20.58c-26.71-5.52-53.85-9.28-81.66-12.93,27.54-5.53,55.93-6.35,84.07-4.12a368.58,368.58,0,0,1,160,52.14C313.27,356.79,335.72,374.2,354.66,394.94Z" transform="translate(-35.43 -30.26)"></path><path fill="#11405B" d="M338.15,342.39A382.66,382.66,0,0,0,88,260.77,382.63,382.63,0,0,0,283.75,84.92,382.72,382.72,0,0,0,338.15,342.39Z" transform="translate(-35.43 -30.26)"></path></svg>